<?xml version="1.0" standalone="no"?><!DOCTYPE svg PUBLIC "-//W3C//DTD SVG 1.1//EN" "http://www.w3.org/Graphics/SVG/1.1/DTD/svg11.dtd"><svg class="icon" width="200px" height="200.00px" viewBox="0 0 1024 1024" version="1.1" xmlns="http://www.w3.org/2000/svg"><path fill="#333333" d="M704.056666 917.857565c-52.968375 0-121.371278-35.292807-169.420621-64.913429-64.338331-39.644929-133.655046-94.500281-195.189518-154.452721l-0.222057-0.216941-19.536962-19.543102c-59.948347-61.522192-114.795513-130.844024-154.453744-195.197704-29.608342-48.049343-64.907289-116.438942-64.907289-169.413458 0-56.697303 40.538275-116.866684 57.96825-140.108015 13.598716-18.134009 61.112869-77.30362 101.487416-77.30362 16.58063 0 34.431184 10.850116 57.891502 35.18536 20.75879 21.519106 40.671305 48.264237 53.723575 66.906829 17.528212 25.040303 33.739429 51.255361 45.650713 73.825402 19.286252 36.531008 21.51399 52.193733 21.51399 60.803831 0 17.374716-9.071609 32.444946-26.962072 44.784996-11.779278 8.126075-25.925463 14.240329-39.591717 20.160155-9.229199 3.979638-23.952528 10.357905-29.571503 14.829753 1.963725 8.303106 10.529821 28.343535 33.675984 62.339814 21.570271 31.664164 49.465598 65.98176 74.671677 91.866291 25.869181 25.190729 60.180638 53.087079 91.863221 74.661444 33.977859 23.136953 54.024427 31.713282 62.33265 33.675984 4.465708-5.623068 10.837836-20.348444 14.82566-29.563316 5.918803-13.680581 12.033058-27.820626 20.165272-39.600927 12.334933-17.888416 27.399023-26.959002 44.771693-26.959002 8.611122 0 24.273846 2.232854 60.818157 21.508873 22.561855 11.916401 48.77896 28.119431 73.813123 45.655829 18.649755 13.045107 45.393863 32.964786 66.911946 53.715389 24.336268 23.468504 35.180244 41.315988 35.180244 57.895595 0 40.372499-59.162448 87.883583-77.29748 101.485369C820.924373 877.318266 760.754992 917.857565 704.056666 917.857565L704.056666 917.857565 704.056666 917.857565 704.056666 917.857565zM704.056666 917.857565" /></svg>