<?xml version="1.0" standalone="no"?><!DOCTYPE svg PUBLIC "-//W3C//DTD SVG 1.1//EN" "http://www.w3.org/Graphics/SVG/1.1/DTD/svg11.dtd"><svg class="icon" width="200px" height="199.80px" viewBox="0 0 1025 1024" version="1.1" xmlns="http://www.w3.org/2000/svg"><path fill="#333333" d="M676.57 512q0 14.856-10.856 25.714l-310.858 310.856q-10.858 10.856-25.714 10.856t-25.714-10.856-10.858-25.714l0-164.572-256 0q-14.856 0-25.714-10.856t-10.856-25.714l0-219.428q0-14.856 10.856-25.714t25.714-10.858l256 0 0-164.57q0-14.856 10.856-25.714t25.714-10.856 25.714 10.856l310.856 310.856q10.856 10.856 10.856 25.714zM877.712 310.858l0 402.286q0 68-48.286 116.286t-116.286 48.286l-182.856 0q-7.428 0-12.856-5.428t-5.428-12.856q0-2.286-0.572-11.428t-0.286-15.144 1.714-13.428 5.714-11.144 11.714-3.714l182.856 0q37.714 0 64.572-26.856t26.856-64.572l0-402.286q0-37.714-26.856-64.57t-64.572-26.856l-178.286 0t-6.572-0.57-6.572-1.714-4.572-3.144-4-5.144-1.142-7.714q0-2.286-0.572-11.43t-0.286-15.144 1.714-13.43 5.714-11.144 11.714-3.714l182.856 0q68 0 116.286 48.286t48.286 116.286z" /></svg>