<?xml version="1.0" standalone="no"?><!DOCTYPE svg PUBLIC "-//W3C//DTD SVG 1.1//EN" "http://www.w3.org/Graphics/SVG/1.1/DTD/svg11.dtd"><svg class="icon" width="200px" height="200.00px" viewBox="0 0 1024 1024" version="1.1" xmlns="http://www.w3.org/2000/svg"><path fill="#333333" d="M512.0266 163.8625c-193.1735 0-349.7718 156.5983-349.7718 349.7728 0 193.1735 156.5993 349.7738 349.7718 349.7738s349.7728-156.6003 349.7728-349.7738C861.7994 320.4608 705.1991 163.8625 512.0266 163.8625zM512.0266 799.9201c-158.1097 0-286.2838-128.1751-286.2838-286.2858s128.1741-286.2848 286.2838-286.2848c158.1097 0 286.2848 128.1741 286.2848 286.2848S670.1363 799.9201 512.0266 799.9201zM645.4917 536.9027c-30.4845-12.2522-59.3705-20.9265-82.4207-25.3399-0.5704-14.1701-6.9366-26.8431-16.8018-35.712 8.2954-15.4573 16.3891-34.7515 23.1578-56.1531 17.9005-56.6016 19.7478-106.4919 4.1267-111.4337-15.6252-4.9408-42.8022 36.9388-60.7037 93.5414-7.2305 22.8618-11.8395 44.628-13.738 62.7804-21.6453 5.8173-37.5828 25.5683-37.5828 49.0506 0 28.0545 22.742 50.7965 50.7965 50.7965 12.503 0 23.9432-4.5251 32.7916-12.0156 19.798 12.9925 47.1265 27.0367 78.2438 39.5438 67.3167 27.0582 126.8429 36.6684 132.9551 21.4651C762.4264 598.2208 712.8095 563.9608 645.4917 536.9027z" /></svg>